<svg width="136" height="141" viewBox="0 0 136 141" fill="none" xmlns="http://www.w3.org/2000/svg">
<circle cx="45.5" cy="82.5" r="40.5" fill="#85A392" fill-opacity="0.58"/>
<circle cx="77" cy="30" r="20" fill="#AF903F" fill-opacity="0.48"/>
<path d="M94.7535 98.8374C94.9999 98.0854 95.242 97.3233 95.4697 96.524C95.4955 96.4352 95.517 96.3435 95.5413 96.2547C95.5571 96.2447 95.5714 96.2461 95.5872 96.2346C102.169 91.5276 112.814 87.3435 113.567 77.9939C113.851 74.4787 112.229 70.4249 108.442 69.6428C104.732 68.8765 101.533 71.4549 99.0236 74.0375C99.29 69.9336 99.3473 66.4986 99.3473 64.3557C99.3473 63.5635 99.2714 61.0152 99.2213 60.2388L99.2069 60.256C99.0064 56.0934 91.466 53.2872 82.6637 52.3361C82.2067 51.8218 81.7097 51.3491 81.1353 50.981C79.5539 49.9682 77.7032 49.6474 75.9312 50.0785L71.5351 51.1443C70.5896 51.3735 69.733 51.8061 68.981 52.379C60.5783 53.3431 53.429 56.0074 52.8661 59.9266L52.8489 59.9008C52.8431 59.9867 52.8374 60.1085 52.8302 60.2403C52.8274 60.3019 52.8088 60.3592 52.8088 60.4222C52.8088 60.4451 52.8174 60.4652 52.8174 60.4881C52.7629 61.6297 52.6899 63.7011 52.6899 64.3557C52.6899 72.7971 53.8602 85.6833 57.1476 96.5369C57.4241 97.4508 57.7149 98.3303 58.0128 99.1855C50.8649 100.952 45.0263 103.688 41.6386 107.113C39.4828 109.291 38.4013 111.631 38.4242 114.064C38.5144 123.576 55.4416 131 76.9912 131H77.1545C92.4802 130.973 106.302 126.996 112.361 120.868C114.517 118.69 115.598 116.352 115.575 113.918C115.515 107.25 107.163 101.615 94.7535 98.8374ZM98.8603 76.3037C101.651 73.2511 105.958 68.9624 110.237 72.0909C114.576 75.2637 111.209 82.5305 108.481 85.4068C105.066 89.0051 100.264 91.3815 96.1014 94.1547C96.249 93.5617 96.385 92.9644 96.5211 92.3671C99.1382 91.0965 104.669 87.6629 107.336 84.4371C109.124 82.2741 110.102 80.4678 110.413 78.7474C110.741 76.9253 110.201 74.4171 108.548 73.3586C107.561 72.7283 105.805 72.3788 103.054 74.3025C102.09 74.9787 100.098 76.6618 98.7242 77.9051C98.7758 77.3622 98.8188 76.8322 98.8603 76.3037ZM103.524 74.9701C105.408 73.6479 106.997 73.327 108.112 74.0447C109.419 74.8798 109.902 77.0185 109.615 78.6042C109.33 80.1813 108.406 81.8701 106.712 83.9214C104.302 86.8364 99.4648 89.9319 96.7474 91.3457C97.6298 87.2031 98.2171 83.0075 98.6053 79.1241C99.8659 77.9281 102.403 75.755 103.524 74.9701ZM97.7974 60.4236C97.7974 60.9823 97.5382 61.5452 97.0841 62.0996C95.8923 59.9953 90.8372 58.57 84.7651 57.8839C84.7622 57.3339 84.7207 56.7809 84.6118 56.2323C84.4456 55.3857 84.1233 54.6036 83.728 53.8688C92.3713 54.9517 97.7974 57.7564 97.7974 60.4236ZM96.4739 62.7227C94.3252 64.6164 89.6425 66.2966 83.2467 67.0386C83.0719 67.0587 82.9043 67.0816 82.7281 67.1002C82.35 67.1403 81.9561 67.1704 81.5664 67.2048C81.2227 67.2349 80.8832 67.2678 80.5322 67.2922C80.1985 67.3151 79.8489 67.328 79.508 67.3466C79.1141 67.3667 78.7259 67.3924 78.3234 67.4068C77.5714 67.4326 76.805 67.4469 76.02 67.4469C75.2365 67.4469 74.4687 67.4326 73.7167 67.4068C73.3141 67.3924 72.926 67.3681 72.5306 67.3466C72.1897 67.3294 71.8416 67.3151 71.5078 67.2922C71.1555 67.2678 70.816 67.2349 70.4708 67.2048C70.0826 67.1719 69.6886 67.1403 69.3105 67.1002C69.1329 67.0816 68.9653 67.0587 68.7905 67.0386C62.7141 66.3339 58.1704 64.7825 55.8899 63.0049C55.9888 61.4779 59.7633 59.8478 65.8282 58.9396C65.8239 59.5255 65.864 60.1185 65.9815 60.7144C66.1591 61.6254 66.5029 62.5193 67.0057 63.3716C67.0787 63.4962 67.212 63.5721 67.3552 63.5721H82.4947C82.615 63.5721 82.7282 63.5191 82.8055 63.4275C83.9185 62.1039 84.5731 60.4322 84.7264 58.6918C91.4746 59.4782 95.9095 61.1284 96.4739 62.7227ZM71.727 51.9335L76.1232 50.8678C77.6817 50.4896 79.306 50.7747 80.6984 51.6657C82.287 52.6827 83.4229 54.4059 83.8125 56.3913C84.258 58.6531 83.6922 61.0195 82.3027 62.7628H67.593C67.2005 62.0509 66.9269 61.3103 66.7808 60.5597C66.013 56.652 68.2333 52.783 71.727 51.9335ZM67.4526 53.9891C66.6003 55.1651 66.0545 56.5818 65.8955 58.1088C60.3592 58.8966 55.9959 60.3448 55.211 62.3975C54.5835 61.7486 54.2441 61.0811 54.2441 60.4222C54.2426 57.8481 59.3149 55.1451 67.4526 53.9891ZM54.1739 67.3079C55.0706 68.451 56.4357 69.1314 57.2407 69.5239L57.596 68.7934C56.4486 68.2333 54.3415 67.1948 54.1323 65.1779C54.1295 64.9014 54.1252 64.6164 54.1252 64.3542C54.1252 64.2468 54.1252 64.1394 54.1266 64.0305C57.2293 66.6132 65.0375 68.5628 73.8771 68.8392C73.8785 68.8392 73.88 68.8392 73.8828 68.8392C74.5905 68.8607 75.3024 68.8765 76.0215 68.8765C76.7406 68.8765 77.4525 68.8621 78.1601 68.8392C78.1615 68.8392 78.163 68.8392 78.1644 68.8392C87.004 68.5628 94.8137 66.6146 97.9163 64.0305C97.9178 64.1379 97.9178 64.2454 97.9178 64.3542C97.9178 64.7811 97.9149 65.3011 97.9063 65.887C96.7904 70.2502 89.9706 70.9549 86.59 71.3016C86.2577 71.3345 85.954 71.3675 85.6876 71.3976C78.0426 72.29 69.8806 72.7971 61.9692 70.4493L61.7372 71.2271C66.0603 72.5106 70.4392 72.9575 74.7681 72.9575C78.5039 72.9575 82.1996 72.6237 85.7821 72.204C86.0443 72.1739 86.3436 72.1439 86.6717 72.1095C89.7528 71.7943 95.5299 71.2013 97.8633 67.911C97.6227 76.6374 96.3435 94.6976 90.1181 105.987C89.3446 106.024 88.5739 106.159 87.8362 106.449L82.7453 108.461C80.9705 109.162 79.5711 110.52 78.8076 112.282C78.3406 113.359 78.1802 114.504 78.2589 115.638C77.537 115.759 76.7978 115.846 76.02 115.846C59.186 115.848 54.6738 83.198 54.1739 67.3079ZM79.0625 118.456C78.1959 118.549 77.2863 118.611 76.3137 118.611C70.9349 118.611 66.6146 116.966 65.5646 115.776C65.4071 115.598 65.3827 115.494 65.3856 115.475C65.5403 114.967 65.801 114.464 67.0515 113.902C69.7431 116.124 72.7426 117.279 76.02 117.279C76.8752 117.279 77.6989 117.193 78.5082 117.064C78.5741 117.3 78.6185 117.539 78.7102 117.77C78.8061 118.013 78.9436 118.23 79.0625 118.456ZM79.5524 112.607C80.2314 111.043 81.4719 109.839 83.0447 109.218L88.1356 107.207C88.8862 106.911 89.6712 106.762 90.459 106.762C91.3214 106.762 92.1823 106.939 93.0002 107.293C94.5644 107.972 95.7691 109.213 96.3893 110.785C97.0096 112.358 96.9795 114.087 96.3005 115.65C95.6215 117.213 94.3825 118.417 92.8082 119.038L87.7173 121.049C84.4643 122.335 80.7528 120.734 79.4622 117.469C78.8434 115.899 78.8763 114.172 79.5524 112.607ZM64.0162 115.06C63.9145 115.396 63.8873 115.926 64.3413 116.539C65.7738 118.472 71.1454 120.043 76.3151 120.043C77.5685 120.043 78.7875 119.94 79.9578 119.783C80.6568 120.596 81.5163 121.267 82.5333 121.708C83.4558 122.107 84.427 122.308 85.3982 122.308C86.2863 122.308 87.173 122.14 88.021 121.805L93.1119 119.794C96.789 118.342 98.5996 114.166 97.1471 110.486C96.4452 108.711 95.0872 107.312 93.3253 106.548C92.8125 106.326 92.2825 106.184 91.7482 106.086C91.8557 105.882 91.9574 105.664 92.0619 105.455C97.945 107.392 101.764 110.393 101.795 113.773C101.808 115.173 101.164 116.541 99.8773 117.84C95.9381 121.825 86.8378 124.412 76.6961 124.431H76.593C62.7427 124.429 51.4465 119.694 51.3906 113.854C51.3777 112.454 52.0223 111.086 53.3072 109.787C54.966 108.11 57.5458 106.684 60.7244 105.59C62.2672 108.591 64.0047 111.017 65.9113 112.877C64.8857 113.443 64.3027 114.113 64.0162 115.06ZM111.353 119.87C105.544 125.743 92.1207 129.553 77.1531 129.579H76.997C56.5789 129.579 39.9282 122.626 39.8466 114.05C39.8265 112.01 40.772 110.013 42.6499 108.112C45.8987 104.828 51.5511 102.204 58.5027 100.51C58.6302 100.85 59.971 104.053 60.3692 104.865C57.1061 106 54.4489 107.478 52.7285 109.217C51.2846 110.677 50.5613 112.238 50.577 113.862C50.6357 120.146 62.2972 125.243 76.593 125.242H76.6947C87.0427 125.223 96.3664 122.543 100.452 118.412C101.896 116.952 102.619 115.389 102.603 113.765C102.57 110.096 98.5623 106.845 92.4029 104.763C92.8254 103.881 93.8969 101.247 93.9169 101.198C93.9169 101.198 94.159 100.538 94.2794 100.203C106.035 102.807 114.099 107.972 114.154 113.931C114.176 115.971 113.232 117.968 111.353 119.87Z" fill="black"/>
<path d="M58.1836 69.9594C59.0259 70.3132 59.8782 70.6327 60.7118 70.9077L60.9668 70.1356C60.1532 69.8677 59.3224 69.5569 58.4973 69.2102L58.1836 69.9594Z" fill="black"/>
<path d="M78.2807 22.696C78.5271 22.9424 78.752 23.1673 78.954 23.4094C81.5653 26.5622 81.8632 31.3866 79.6473 34.6297C77.8424 37.274 77.5158 40.3136 78.6761 43.6655C78.7176 43.7873 78.7706 43.9047 78.825 44.0222L79.6931 46.0577L79.6702 44.0107C79.6401 41.345 80.7359 39.1719 83.0192 37.3699C83.4704 37.0118 83.873 36.6007 84.3185 36.1438C85.3312 35.1024 85.8855 33.7817 85.9643 32.2174C86.205 27.4703 83.3458 23.5111 78.3137 21.6274L76.6377 21L77.8782 22.2892C78.0186 22.4339 78.1532 22.5671 78.2807 22.696ZM85.1536 32.1745C85.0834 33.5568 84.6207 34.6684 83.6796 35.6367C83.3086 36.0163 82.9276 36.4073 82.5164 36.7339C80.6185 38.2323 79.4711 39.9727 79.0471 42.0125C78.4741 39.4498 78.8952 37.1737 80.3191 35.0895C82.6497 31.676 82.4319 26.6624 79.855 23.2403C82.1884 24.5496 85.4028 27.2583 85.1536 32.1745Z" fill="black"/>
<path d="M72.1041 32.4309C71.8577 34.1326 71.09 35.7513 69.7549 37.3814C69.1275 38.1463 68.397 39.1949 68.3325 40.5156C68.195 43.3274 70.1417 45.4747 71.6185 46.8455L72.4837 47.6491L72.2474 46.1966C72.011 44.7742 71.9079 43.2773 72.7487 41.9738C73.2716 41.1616 74.0007 40.3294 75.0406 39.3553C77.1563 37.3714 77.9041 34.9921 77.2623 32.2819C76.6163 29.5416 73.5022 26.8615 70.1761 26.1826L68.1807 25.7743L69.8667 26.916C72.3018 28.5647 72.3634 30.6289 72.1041 32.4309ZM76.4716 32.4681C77.0475 34.9076 76.3972 36.966 74.4834 38.7608C73.3933 39.7822 72.6255 40.6617 72.0654 41.534C71.2661 42.7731 71.1831 44.1053 71.3191 45.4031C69.7406 43.7199 69.0659 42.1944 69.1447 40.5542C69.1848 39.7091 69.5673 38.8897 70.3838 37.8971C71.8148 36.1495 72.6399 34.4005 72.9077 32.5469C73.1255 31.0371 73.1469 29.2022 71.7947 27.5606C74.078 28.5805 76.0147 30.5386 76.4716 32.4681Z" fill="black"/>
</svg>
