<svg width="26" height="26" viewBox="0 0 26 26" fill="none" xmlns="http://www.w3.org/2000/svg">
<path d="M23.3394 0C23.334 0 23.3287 6.59223e-05 23.3233 0.000263689H4.98114C4.6899 0.000263689 4.45376 0.236397 4.45376 0.527642V1.85663L2.38117 3.17508C2.22981 3.26961 2.13653 3.43435 2.1333 3.6128V25.4726C2.1333 25.7639 2.36943 26 2.66068 26H20.1591C20.3445 25.997 20.5147 25.8969 20.6074 25.7363L21.9574 23.4739H23.3392C23.6304 23.4739 23.8665 23.2377 23.8665 22.9465V0.527642C23.8667 0.236331 23.6307 0.000131845 23.3394 0ZM3.18806 24.9505V4.14545H19.6317L19.637 24.9505H3.18806ZM19.4049 1.73534C19.1478 1.8509 19.027 2.14821 19.1307 2.41038L19.4049 3.0907H4.47486L5.26593 2.58969C5.41682 2.49285 5.50819 2.326 5.50852 2.14669V1.05502H20.9027L19.4049 1.73534ZM22.796 22.4402L21.641 22.4191C21.4537 22.4202 21.2811 22.5206 21.1875 22.6828L20.6865 23.5477V3.61808C20.6866 3.5513 20.6741 3.48505 20.6495 3.42295L20.2804 2.49476L22.796 1.34508V22.4402Z" fill="black"/>
<path d="M15.9929 6.01229H13.9994C13.7081 6.01229 13.472 6.24842 13.472 6.53967C13.472 6.83091 13.7081 7.06705 13.9994 7.06705H14.4687V10.7112C14.5389 12.3991 13.2274 13.8242 11.5395 13.8944C9.85168 13.9645 8.42657 12.653 8.35643 10.9652C8.35293 10.8805 8.35293 10.7958 8.35643 10.7112V7.06698H8.82579C9.11704 7.06698 9.35317 6.83085 9.35317 6.5396C9.35317 6.24836 9.11704 6.01222 8.82579 6.01222H6.8323C6.54106 6.01222 6.30493 6.24836 6.30493 6.5396C6.30493 6.83085 6.54106 7.06698 6.8323 7.06698H7.30167V10.7112C7.22032 12.9815 8.99495 14.888 11.2653 14.9694C13.5357 15.0507 15.4421 13.2761 15.5235 11.0057C15.527 10.9076 15.527 10.8093 15.5235 10.7112V7.06698H15.9929C16.2841 7.06698 16.5202 6.83085 16.5202 6.5396C16.5202 6.24836 16.2841 6.01229 15.9929 6.01229Z" fill="black"/>
</svg>
