<svg width="150" height="121" viewBox="0 0 150 121" fill="none" xmlns="http://www.w3.org/2000/svg">
<circle cx="105" cy="91" r="20" fill="#AF903F" fill-opacity="0.48"/>
<circle cx="44.5" cy="57.5" r="40.5" fill="#85A392" fill-opacity="0.58"/>
<path d="M130.309 57.8169C124.565 55.7096 119.32 59.7115 115.164 63.4714L115.103 62.6288C115.097 62.6408 115.082 62.6408 115.074 62.6528C114.909 56.4578 101.428 52.31 85.8736 51.0007C86.8616 49.5437 88.1619 48.1949 89.7844 46.9456C90.6244 46.3003 91.3724 45.5504 92.1844 44.737C94.0453 42.8733 95.0628 40.5034 95.2108 37.6908C95.6563 29.143 90.3778 22.0162 81.0916 18.6269L78.5945 17.7157L80.4916 19.6377C80.748 19.8968 80.9946 20.1371 81.2313 20.3687C81.6932 20.8201 82.1157 21.2302 82.4954 21.6764C87.3761 27.4218 87.935 36.2133 83.7941 42.1251C81.9464 44.7627 80.9699 47.6286 80.8023 50.6815C78.9759 50.6025 77.1414 50.5493 75.3084 50.5493C75.1835 50.5493 75.0569 50.5545 74.932 50.5562C74.9353 50.5528 74.9386 50.5493 74.9435 50.5459C78.8428 46.9833 80.222 42.7052 79.0384 37.8315C77.8433 32.9115 72.1588 28.4068 65.9926 26.8847L62.981 26.2858L65.5718 27.9967C70.1582 31.0256 70.2782 34.8009 69.7916 38.0958C69.3362 41.1933 67.8995 44.1449 65.4008 47.1172C64.5181 48.1691 63.5301 49.518 63.0583 51.15C48.1171 52.6155 35.4906 56.7255 35.4906 62.7643C35.4906 62.7935 35.4971 62.8227 35.4971 62.8536L35.3706 64.6074C35.2736 65.9425 35.2275 67.13 35.2275 68.2352C35.2275 85.1728 43.728 99.9397 56.2214 107.513C54.8291 108.338 54.0828 109.282 54.0828 110.337C54.0828 114.276 64.3981 117.862 75.7276 117.862C83.8352 117.862 91.4085 116.023 95.0661 113.534C95.7681 114.202 96.6574 114.574 97.6026 114.574C97.624 114.574 97.6437 114.574 97.6635 114.574L105.712 114.439C107.795 114.403 109.46 112.606 109.429 110.433L109.187 94.7468C109.182 94.4843 109.067 94.1496 108.883 93.7738C114.181 89.9058 121.526 88.7251 126.841 84.7438C131.527 81.2327 135.655 75.9386 136.286 69.7625C136.774 64.9901 134.978 59.5295 130.309 57.8169ZM115.36 69.0846C117.188 67.4338 120.328 64.616 122.169 63.5143C125.21 61.6935 127.733 61.4756 129.466 62.8862C131.628 64.6486 132.18 68.6522 131.452 71.3533C130.686 74.1831 128.506 77.2583 125.624 79.5819C122.733 81.9106 119.764 83.6867 116.793 84.8554L116.062 85.1402C114.503 85.746 112.933 86.393 111.534 87.2544C113.888 81.7218 115.25 75.5766 115.36 69.0846ZM113.724 66.9722C113.739 67.408 113.745 67.8268 113.745 68.2335C113.745 69.0915 113.703 69.9393 113.658 70.7853C112.335 75.0137 107.126 77.0009 101.975 78.0323V71.99C107.384 70.6291 111.566 68.8942 113.724 66.9722ZM101.975 91.7969V91.2117C102.041 91.2512 102.112 91.2855 102.168 91.3438C102.348 91.5275 102.452 91.7729 102.457 92.0371C102.464 92.5811 102.046 93.0325 101.525 93.041C101.291 93.0222 101.033 92.9466 100.853 92.763C100.672 92.5794 100.568 92.334 100.563 92.068C100.56 91.8055 100.655 91.5549 100.83 91.3661C100.892 91.2992 100.969 91.2563 101.045 91.21V91.7969H101.975ZM69.7193 63.0406C69.4776 61.6249 69.3231 60.1696 69.4776 58.7505C71.4305 58.6732 73.4295 58.6166 75.5369 58.6166C77.8318 58.6166 80.028 58.6715 82.1519 58.7573C82.1963 58.8603 82.2357 58.9632 82.2834 59.0662L83.5492 61.92L83.5163 59.0662C83.5146 58.9804 83.5278 58.8997 83.5278 58.8139C100.287 59.6514 111.068 63.0458 111.068 66.2463H111.074C108.117 68.4445 102.485 70.4455 94.8426 71.7446C94.5368 71.7926 94.2458 71.8458 93.9352 71.8956C93.5176 71.9625 93.0771 72.0191 92.648 72.0809C91.8852 72.189 91.1274 72.3006 90.3318 72.3967C90.317 72.3984 90.3006 72.4001 90.2858 72.4018C86.9175 72.8051 83.2566 73.0882 79.3491 73.2049C78.0274 73.2427 76.6778 73.265 75.3002 73.265C74.5901 73.265 73.9062 73.2444 73.2092 73.2341C72.5681 73.2238 71.9155 73.2238 71.2875 73.2049C66.1718 73.0539 61.4868 72.6146 57.3195 71.9934C57.1831 71.9728 57.0384 71.9539 56.9036 71.9333C56.3398 71.8475 55.8088 71.7497 55.2647 71.657C48.3341 70.4386 43.0836 68.6436 40.0687 66.6513C40.7066 63.4782 50.0438 60.2211 64.5345 59.0919C65.7625 61.1306 67.4211 62.8227 68.8529 64.12L70.1122 65.2595L69.7193 63.0406ZM113.44 62.7643C113.44 63.7082 112.905 64.664 111.893 65.5959C110.691 61.3829 97.8722 58.6166 83.5672 57.8547C83.6873 55.9773 84.1344 54.2355 84.935 52.6224C102.309 53.8888 113.44 58.4484 113.44 62.7643ZM84.736 42.8407C89.1646 36.5153 88.6106 27.1438 83.462 20.9797C87.8578 23.2191 94.5385 28.2009 94.0486 37.6239C93.9154 40.1534 93.0425 42.1938 91.2885 43.9493C90.5915 44.646 89.8731 45.3685 89.094 45.9674C85.3476 48.8521 83.1875 52.2328 82.5497 56.2433C81.205 51.2529 81.925 46.8529 84.736 42.8407ZM75.3117 52.2637C77.2005 52.2654 79.0121 52.3186 80.7891 52.3924C80.8697 54.1291 81.2116 55.9224 81.8116 57.7706C79.7321 57.6848 77.6296 57.6384 75.5369 57.6384C73.5659 57.6384 71.5982 57.6985 69.6404 57.7774C69.8311 56.9314 70.145 56.1043 70.6678 55.3166C71.3089 54.347 72.1308 53.3585 73.1435 52.3066C73.8602 52.2877 74.5687 52.2637 75.3117 52.2637ZM63.9509 52.7957C64.0298 51.2443 64.7466 49.7411 66.2803 47.9186C68.9269 44.7662 70.4541 41.6137 70.9472 38.2794C71.3681 35.4256 71.3911 31.9299 68.5012 28.8736C73.1024 30.6446 76.995 34.3565 77.9107 38.1284C78.9924 42.585 77.771 46.3467 74.1775 49.6295C72.1703 51.4623 70.75 53.0497 69.7061 54.625C68.1444 56.988 68.0705 59.5484 68.3877 62.0281C65.174 58.8054 63.7948 55.9121 63.9509 52.7957ZM62.7936 52.8609C62.7213 54.7846 63.2062 56.5316 63.9838 58.0966C51.4049 59.1675 40.7049 61.9595 39.2567 66.0455C37.9005 64.9729 37.1443 63.8626 37.1443 62.7661C37.1427 58.6904 47.0634 54.3951 62.7936 52.8609ZM55.7283 110.337C55.7299 109.98 57.8785 108.455 57.8785 108.455C58.49 108.8 58.4982 108.783 59.1262 109.093L56.2264 111.266C55.9107 110.931 55.7283 110.615 55.7283 110.337ZM56.9793 111.899L60.101 109.558C60.7585 109.862 61.4259 110.143 62.1016 110.406L58.7497 112.918C58.0396 112.577 57.4478 112.235 56.9793 111.899ZM59.7508 113.363L63.1619 110.808C63.8835 111.063 64.6101 111.302 65.3482 111.513L61.855 114.13C61.0889 113.883 60.387 113.627 59.7508 113.363ZM62.9893 114.478L66.5367 111.82C67.3373 112.021 68.1461 112.199 68.9631 112.345L65.3416 115.06C64.5164 114.88 63.7257 114.686 62.9893 114.478ZM75.7326 116.148C72.3791 116.146 69.3001 115.818 66.6025 115.314L70.1812 112.632L70.1056 112.522C71.0656 112.661 72.0322 112.771 73.0119 112.833L70.3916 114.797L70.9341 115.589L74.5342 112.889C74.7939 112.894 75.0503 112.911 75.3101 112.911C76.1008 112.911 76.8833 112.879 77.6625 112.827L75.7276 114.149L76.2389 114.964L79.6548 112.632C84.7048 112.021 89.4737 110.361 93.7872 107.851L93.8316 110.696C93.8398 111.201 93.9434 111.688 94.1242 112.141C91.1652 114.041 84.3169 116.148 75.7326 116.148ZM93.5899 95.0111L93.7576 105.882C88.2753 109.253 81.9974 111.197 75.3117 111.197C55.3157 111.195 38.8457 94.0398 37.0457 72.2062C38.5301 74.2809 41.2195 75.4564 42.7318 76.112L43.0885 75.2145C41.0271 74.3204 37.1903 72.6541 36.9322 69.3575L36.901 69.3609C36.8928 68.9851 36.8747 68.6127 36.8747 68.2352C36.8747 67.8285 36.8813 67.4098 36.8961 66.9739C40.4863 70.1675 49.641 72.8497 60.798 74.1436C60.8572 74.1505 60.9163 74.1574 60.9755 74.1642C61.8237 74.262 62.6786 74.3513 63.5482 74.4319C64.1054 74.4851 64.6644 74.5332 65.2266 74.5778C65.4962 74.5984 65.7641 74.6224 66.037 74.643C66.8819 74.7048 67.7335 74.7563 68.5883 74.8009C68.7987 74.8112 69.0075 74.8232 69.2195 74.8318C70.1237 74.8747 71.0311 74.909 71.9385 74.933C72.0799 74.9365 72.2229 74.9382 72.3643 74.9416C73.3407 74.9639 74.3172 74.9794 75.292 74.9794C75.2953 74.9794 75.3002 74.9794 75.3035 74.9794C75.3051 74.9794 75.3084 74.9794 75.3101 74.9794C75.3183 74.9794 75.3265 74.9794 75.3347 74.9794C76.2783 74.9794 77.2235 74.9656 78.1671 74.9433C78.3562 74.9382 78.5452 74.9365 78.7326 74.9313C79.5759 74.909 80.4176 74.8764 81.256 74.8369C81.5683 74.8232 81.8806 74.806 82.1913 74.7906C82.9064 74.7511 83.6199 74.7082 84.33 74.6585C84.8248 74.6241 85.313 74.5829 85.8029 74.5435C86.0758 74.5212 86.3487 74.4971 86.6199 74.4731C91.8951 74.0029 96.8152 73.2272 101.043 72.2216V78.221C98.344 78.705 95.7286 78.9435 93.7691 79.122C93.1872 79.1752 92.6579 79.2232 92.1959 79.2713C78.8345 80.6596 64.5641 81.4369 50.7276 77.7954L50.4991 78.7393C57.9952 80.711 65.6047 81.4009 73.1237 81.4009C79.6236 81.4009 86.0561 80.8861 92.2913 80.2391C92.7499 80.1911 93.2743 80.143 93.8513 80.0915C95.7977 79.9148 98.3703 79.6745 101.045 79.2026V85.2586L100.68 85.6327C98.538 87.831 93.5587 93.1474 93.5899 95.0111ZM105.689 112.723L97.6404 112.858C97.1177 112.846 96.5358 112.644 96.1248 112.228C95.7138 111.813 95.482 111.259 95.4738 110.667L95.2322 95.0008C95.3324 94.1239 98.1928 90.6866 101.045 87.6766V90.1906C100.714 90.2799 100.404 90.4275 100.16 90.6883C99.812 91.0658 99.6246 91.5601 99.6328 92.0852C99.641 92.6086 99.8432 93.0977 100.205 93.4615C100.558 93.8184 101.02 94.014 101.51 94.014C101.522 94.014 101.531 94.014 101.543 94.014C102.577 93.9969 103.407 93.1028 103.391 92.0234V92.0217C103.382 91.4983 103.18 91.0092 102.819 90.6454C102.582 90.4051 102.288 90.2661 101.977 90.1821V87.7435C104.76 90.5373 107.426 93.966 107.546 94.7743L107.788 110.461C107.806 111.688 106.864 112.702 105.689 112.723ZM107.471 91.6596C105.825 89.5746 103.397 87.1446 101.975 85.77V79.0241C106.524 78.1301 111.171 76.4878 113.456 73.2427C112.748 79.98 110.645 86.2385 107.471 91.6596ZM130.046 79.4858C126.316 83.8515 121.215 86.5371 116.053 88.5844C113.796 89.4802 111.572 90.285 109.514 91.4228C109.942 90.6437 110.341 89.844 110.726 89.034C112.284 87.692 114.349 86.8426 116.387 86.0515L117.12 85.7649C120.176 84.5619 123.231 82.7412 126.193 80.3524C129.229 77.9053 131.531 74.6413 132.348 71.6176C133.178 68.5475 132.54 64.1561 130.04 62.1191C128.606 60.9522 125.997 60.0976 121.707 62.6682C119.992 63.6945 117.265 66.0867 115.381 67.7804C115.373 67.0786 115.345 66.3303 115.301 65.5427C115.388 65.5066 115.475 65.4637 115.557 65.3882C119.972 61.316 128.807 54.7108 133.37 62.5584C136.592 68.1031 133.771 75.1252 130.046 79.4858Z" fill="black"/>
<path d="M44.3555 76.7778C45.7971 77.3183 47.2668 77.8109 48.7216 78.2399L48.9747 77.3029C47.5396 76.8807 46.0914 76.3968 44.6694 75.8631L44.3555 76.7778Z" fill="black"/>
</svg>
