<svg width="136" height="111" viewBox="0 0 136 111" fill="none" xmlns="http://www.w3.org/2000/svg">
<circle cx="43.5" cy="49.5" r="40.5" fill="#85A392" fill-opacity="0.58"/>
<circle cx="116" cy="64" r="20" fill="#AF903F" fill-opacity="0.48"/>
<path d="M127.884 70.8599L123.494 51.6616C123.009 49.5427 115.038 44.6076 112.144 42.8765C111.555 40.741 110.681 38.0955 109.346 34.6757C107.879 30.9178 104.693 27.7428 100.824 26.1876C98.8121 25.3791 96.6326 25.1124 94.9592 24.9694C90.9125 24.6256 87.6825 24.8759 84.8087 25.7614C81.1964 26.8752 78.2965 29.034 76.6423 31.839C76.0428 32.8566 75.6275 33.9415 75.3154 35.0539H63.1738L49.8016 47.3715V82.4542C48.9628 81.4944 48.0498 80.5814 47.0446 79.7522C39.4145 73.4614 29.946 74.5106 29.5431 74.556L29 74.6206L29.1265 75.1527C29.2379 75.6189 31.9288 86.6288 39.5245 92.8907C45.1594 97.5342 51.7954 98.1791 55.0432 98.1791C56.1955 98.1791 56.9202 98.098 57.0247 98.0856L57.4757 98.032L57.4853 98.0513L57.5417 98.0238L57.5678 98.021L57.5664 98.0128L57.9308 97.8326C58.0408 97.779 58.8933 97.3431 60.091 96.5277H92.0689C95.974 96.5277 99.1489 93.5783 99.1489 89.9523V46.7596L84.9558 35.0539H76.3261C76.6093 34.1079 76.9751 33.1907 77.4797 32.3341C79.0088 29.738 81.7135 27.7346 85.0933 26.6909C87.8434 25.8439 90.9496 25.6032 94.8726 25.9388C96.4786 26.0763 98.5659 26.3293 100.458 27.0897C104.083 28.5472 107.065 31.5145 108.436 35.0278C109.664 38.1711 110.492 40.6434 111.071 42.6675L110.914 42.904C109.239 45.4313 103.817 53.852 104.319 56.0438L108.71 75.2435C109.194 77.3528 111.076 78.787 113.154 78.787C113.489 78.787 113.83 78.7498 114.17 78.6715L124.454 76.3202C126.908 75.7605 128.446 73.3102 127.884 70.8599ZM30.5029 76.4164L34.9058 80.0465L32.1475 80.8C31.3719 79.0221 30.8343 77.4766 30.5029 76.4164ZM32.3853 81.339L35.4572 80.5003L38.5675 83.0647L33.9006 84.3394C33.3259 83.3109 32.8199 82.2988 32.3853 81.339ZM34.1976 84.8633L39.1189 83.5185L42.749 86.5106L36.6906 88.5539C35.7473 87.3576 34.9195 86.1077 34.1976 84.8633ZM37.0811 89.0406L43.2811 86.9506L47.134 90.1269L40.1323 92.1276C39.0062 91.1981 37.9955 90.1475 37.0811 89.0406ZM40.7098 92.5704L47.6813 90.5779L51.2371 93.5095L45.671 95.3864C44.0099 94.7182 42.3214 93.8051 40.7098 92.5704ZM46.5276 95.7164L51.7693 93.9481L55.6977 97.1877C53.9129 97.2304 50.3708 97.0887 46.5276 95.7164ZM36.0691 79.7412L36.0663 79.7289L36.0567 79.7316L30.8728 75.458C33.6408 75.392 40.6631 75.755 46.4245 80.5058C52.1611 85.2345 55.0597 93.0021 56.0676 96.2293L36.0691 79.7412ZM57.0027 74.501C57.5417 73.4326 58.1604 72.4508 58.8246 71.5598L62.6706 76.6873L61.7245 80.2775L57.0027 74.501ZM61.5417 80.9774L60.3467 85.5068L55.4282 79.0603C55.4997 78.6986 55.5712 78.337 55.6647 77.9795C55.937 76.9496 56.2986 75.9857 56.718 75.0781L61.5417 80.9774ZM59.1958 71.0799C59.7816 70.3401 60.388 69.6581 60.9971 69.0503L63.728 72.6901L62.8631 75.9681L59.1958 71.0799ZM61.422 68.6433C63.0858 67.0579 64.6781 65.9661 65.6585 65.3638L63.9163 71.9695L61.422 68.6433ZM55.3347 75.8513V65.1425C57.9446 64.741 60.5984 64.6667 63.2261 64.9197C63.5918 64.9555 63.9356 65.0201 64.2917 65.0696C61.7768 66.7403 57.4537 70.2714 55.3347 75.8513ZM60.1584 86.2218L59.1656 89.9853L55.0872 84.9966C54.9772 83.3095 55.0185 81.5659 55.288 79.8403L60.1584 86.2218ZM57.6104 95.8842C56.872 94.0018 55.6029 90.2713 55.1752 86.0307L58.9813 90.6866L57.6104 95.8842ZM58.4836 96.3957L66.5317 65.8754C67.7238 68.9128 70.3226 76.7794 68.4773 83.7797C66.6279 90.7924 60.8115 94.967 58.4836 96.3957ZM67.5134 65.6911C71.9919 66.8516 75.7719 68.9747 79.292 71.1156C83.6811 73.786 88.7715 76.657 93.8275 77.0888V87.2352C93.8275 89.1548 91.6522 90.7154 88.9805 90.7154H66.1659C67.5299 88.8619 68.729 86.6467 69.4192 84.0286C71.3251 76.8014 68.7867 68.939 67.5134 65.6911ZM85.6447 37.3901L97.7863 47.4031V89.9523C97.7863 92.8247 95.2218 95.1637 92.0703 95.1637H61.9212C63.0927 94.208 64.3756 92.9842 65.5746 91.4951H88.9805C92.084 91.4951 94.6072 89.5838 94.6072 87.2338V76.3587L94.2414 76.3367C89.2418 76.0273 84.1129 73.1356 79.6977 70.4487C75.9823 68.1882 71.9713 65.9565 67.1573 64.8083C67.0006 64.4412 66.8947 64.2102 66.8672 64.1538L66.6554 63.7056L66.2113 63.9256C66.1467 63.9572 65.8125 64.1277 65.312 64.4247C64.6547 64.3133 63.992 64.2102 63.3031 64.1428C60.5007 63.8719 57.6668 63.9668 54.8837 64.4247L54.5578 64.4783V78.5051C54.1068 80.558 53.9748 82.6467 54.0724 84.6543L54.0601 84.6639L54.0738 84.6804C54.1769 86.7608 54.5083 88.7436 54.9181 90.5133C53.9789 88.4892 52.7428 86.2644 51.167 84.1524V47.9696L63.0556 37.0188L66.9978 45.8507H81.719L85.6447 37.3901ZM84.469 36.4193L84.8692 36.7493L81.0961 44.8744H67.6289L63.8545 36.4193H74.9882C74.7406 37.6637 74.6018 38.9232 74.5151 40.1594H71.6111V40.939H74.4643C74.4368 41.4134 74.4134 41.8823 74.3914 42.343L75.3635 42.3897C75.3869 41.9139 75.4117 41.4286 75.4405 40.939H77.6268V40.1594H75.4914C75.5808 38.9164 75.7238 37.6541 75.9837 36.4193H84.469ZM112.51 50.3278L112.525 50.4694L113.495 50.3732L113.481 50.2316C113.442 49.841 113.401 49.4354 113.353 49.0078C113.504 49.0449 113.651 49.0985 113.788 49.1838C114.118 49.3914 114.347 49.7145 114.435 50.0968C114.522 50.4763 114.456 50.8682 114.248 51.1996C114.041 51.5296 113.716 51.7606 113.335 51.8472C112.958 51.9325 112.564 51.8679 112.232 51.6602C111.902 51.4526 111.673 51.1295 111.585 50.7472C111.498 50.3677 111.563 49.9758 111.772 49.6444C111.92 49.4093 112.14 49.2484 112.385 49.1301C112.433 49.5482 112.472 49.9455 112.51 50.3278ZM124.15 74.9822L113.866 77.3336C112.162 77.7241 110.444 76.6515 110.052 74.9396L105.661 55.74C105.422 54.6936 108.443 49.2319 111.546 44.4536C111.924 45.9964 112.14 47.2395 112.285 48.3134C111.802 48.4784 111.387 48.7919 111.112 49.2305C110.794 49.7379 110.692 50.3388 110.826 50.9218C110.961 51.5048 111.313 52.0026 111.82 52.3202C112.182 52.5471 112.59 52.664 113.005 52.664C113.173 52.664 113.342 52.6447 113.51 52.6062C114.093 52.4729 114.589 52.1195 114.908 51.6135C115.227 51.1061 115.329 50.5052 115.196 49.9222C115.061 49.3392 114.709 48.8414 114.201 48.5238C113.91 48.3409 113.587 48.2391 113.254 48.2034C113.125 47.2271 112.939 46.1202 112.628 44.7795C117.283 47.6465 121.924 50.97 122.153 51.9682L126.544 71.1665C126.936 72.8784 125.862 74.5904 124.15 74.9822Z" fill="black"/>
<path d="M118.364 59.1377V59.128H118.352C115.496 56.7011 111.837 55.8692 111.633 55.8252L111.392 55.7716L111.299 55.9998C111.196 56.2556 108.77 62.3168 111.254 67.0428C113.737 71.7701 120.102 73.2126 120.371 73.2717L120.612 73.3253L120.706 73.097C120.809 72.8413 123.234 66.7815 120.751 62.0555C120.14 60.8936 119.295 59.9311 118.364 59.1377ZM119.949 61.8492L114.668 61.379L113.663 59.4663L118.105 59.7014C118.805 60.312 119.442 61.0256 119.949 61.8492ZM117.316 59.073L113.346 58.8627L112.14 56.5663C113.187 56.8744 115.364 57.6375 117.316 59.073ZM111.772 66.7719C109.858 63.128 111.083 58.4859 111.623 56.84L112.959 59.3824L112.956 59.4278L112.983 59.4292L118.148 69.2634L118.13 69.4532L118.255 69.4656L119.865 72.5305C118.204 72.041 113.686 70.4157 111.772 66.7719ZM120.382 72.2569L118.952 69.5329L121.011 69.7351C120.82 70.8159 120.564 71.7041 120.382 72.2569ZM121.104 69.1576L118.627 68.9142L117.766 67.2751L121.249 67.6161C121.224 68.1524 121.174 68.6708 121.104 69.1576ZM121.267 67.0331L117.44 66.6577L116.411 64.6997L121.093 64.9486C121.214 65.6485 121.271 66.3511 121.267 67.0331ZM116.095 64.0974L114.991 61.995L120.297 62.468C120.602 63.0771 120.82 63.7124 120.971 64.3559L116.095 64.0974Z" fill="black"/>
</svg>
