<svg width="150" height="121" viewBox="0 0 150 121" fill="none" xmlns="http://www.w3.org/2000/svg">
<circle cx="43.5" cy="57.5" r="40.5" fill="#85A392" fill-opacity="0.58"/>
<circle cx="128" cy="60" r="20" fill="#AF903F" fill-opacity="0.48"/>
<path d="M134.842 54.6773C134.665 53.5985 134.564 52.6901 134.465 51.8035C134.35 50.7665 134.24 49.7854 134.025 48.5934L133.929 47.8432C133.929 47.8432 132.661 47.6649 131.618 47.7052C125.858 47.744 120.8 50.4209 118.416 54.6912C117.505 56.3234 116.931 58.7167 116.375 61.0294C115.635 64.1108 114.797 67.5349 113.261 68.2448V66.3429C113.261 57.8456 109.485 50.1 103.317 44.2517C103.615 44.0533 103.942 43.8751 104.227 43.6705L104.945 43.1558L104.335 42.5157C98.7165 36.6162 91.0764 32.6838 82.6814 31.1647C82.7744 30.9431 82.8271 30.6997 82.8271 30.444V29.6907C82.8271 28.6645 81.9916 27.8291 80.9655 27.8291H77.4593C79.355 26.9254 80.6756 25.039 80.6756 22.8426C80.6756 19.775 78.1227 17.2795 74.9839 17.2795C71.8466 17.2795 69.2937 19.775 69.2937 22.8426C69.2937 25.039 70.6143 26.9254 72.51 27.8291H69.4812C68.4551 27.8291 67.6196 28.6645 67.6196 29.6907V30.444C67.6196 30.6641 67.6754 30.8671 67.7452 31.064C59.1285 32.5055 51.2729 36.486 45.5284 42.5172L44.9193 43.1574L45.6369 43.6736C45.9222 43.8782 46.2492 44.058 46.5468 44.2548C44.2311 46.4512 42.2532 48.9142 40.6861 51.585C37.1334 46.4249 31.9175 41.0695 25.195 41.2384C19.2708 41.3873 15.1291 46.2311 14.2145 51.819C13.0939 58.6687 16.5101 65.3075 21.0549 70.2041C26.7389 76.3267 35.5477 78.0364 40.8861 84.3792C40.9388 84.4427 40.9992 84.4753 41.0566 84.514C44.3318 89.4649 49.2811 93.4655 55.4332 96.1626C55.3588 96.3005 55.3045 96.4633 55.2627 96.6679C55.2363 96.7934 55.2038 96.9639 55.1077 97.2166C54.9682 97.5809 54.8984 98.1559 55.3557 98.8224C57.1506 101.431 66.547 103.721 75.4644 103.721C86.1457 103.721 95.8737 100.752 95.8737 97.4941C95.8737 96.9205 95.5668 96.392 95.0166 95.9037C97.5199 94.7582 99.8109 93.3895 101.868 91.8271C104.901 93.8825 108.308 94.952 111.763 94.952C113.073 94.952 114.389 94.7985 115.694 94.4916C119.941 93.4872 123.539 90.9234 125.315 87.6327C127.561 83.4739 128.553 78.7355 128.347 73.1445L128.273 71.3712C128.088 67.2187 127.898 62.9251 129.344 59.0221C130.009 57.2318 132.087 55.3748 133.991 55.5748L135 55.6802L134.842 54.6773ZM70.8344 22.841C70.8344 20.6214 72.6975 18.8156 74.987 18.8156C77.2779 18.8156 79.1411 20.6214 79.1411 22.841C79.1411 25.0607 77.2779 26.8665 74.987 26.8665C72.6975 26.8665 70.8344 25.0607 70.8344 22.841ZM69.1619 29.6891C69.1619 29.5139 69.3107 29.3651 69.4843 29.3651H80.9686C81.1437 29.3651 81.291 29.5139 81.291 29.6891V30.4424C81.291 30.6176 81.1422 30.7664 80.9686 30.7664H69.4843C69.3092 30.7664 69.1619 30.6176 69.1619 30.4424V29.6891ZM69.7525 32.304H80.1207C87.643 33.2356 94.6322 36.1729 100.174 40.744C98.6359 41.7112 96.9417 42.5854 95.1065 43.3388L95.4397 44.151C97.4098 43.3434 99.2218 42.3963 100.859 41.347C101.451 41.8616 102.041 42.3777 102.596 42.9295C95.7993 47.4929 85.7861 50.0985 74.9358 50.0985C68.1838 50.0985 61.7574 49.0879 56.2268 47.2263L58.524 45.7723C63.2997 47.2712 68.5357 48.0679 74.0368 48.0679C77.6995 48.0679 81.4708 47.7269 85.2823 47.034L85.1242 46.1691C75.5822 47.9036 66.3036 47.3999 58.4077 44.8438L58.3907 44.8175L58.369 44.8314C55.2162 43.8084 52.2928 42.4475 49.6531 40.7796C55.2007 36.1884 62.21 33.2387 69.7525 32.304ZM52.7935 45.9087C52.4091 45.7413 52.0557 45.5507 51.6837 45.3755L53.7995 44.0146C54.2536 44.2192 54.7341 44.3912 55.2007 44.5803L52.7873 45.8979L52.7935 45.9087ZM50.7552 44.9275C50.377 44.7353 49.9957 44.5478 49.6314 44.3463L51.6093 42.9156C52.0293 43.1373 52.4556 43.3496 52.8865 43.5573L50.7552 44.9275ZM56.2563 45.0066C56.6438 45.1523 57.0344 45.2918 57.4281 45.4282L55.1945 46.8403C54.7372 46.6744 54.2862 46.5024 53.8413 46.3241L56.2563 45.0066ZM48.9819 41.378C49.5585 41.7484 50.1352 42.1189 50.7397 42.4599L48.8114 43.8549C48.2953 43.5496 47.759 43.2582 47.2753 42.9326C47.821 42.3901 48.4007 41.8848 48.9819 41.378ZM28.7167 74.4093C23.2234 71.1759 18.3655 65.8732 16.4078 59.718C14.5416 53.8496 15.7909 45.577 22.3925 43.2768C29.6731 40.7409 36.0825 47.4681 39.6972 52.8653C39.7514 52.9459 39.8165 52.9986 39.8832 53.0498C39.3019 54.1766 38.7904 55.3361 38.358 56.5249C35.5601 52.3662 29.0841 46.4729 24.2386 46.9906C21.9012 47.248 20.2891 48.9111 19.4459 51.9368C16.9193 61.0077 24.8928 66.7149 31.9268 71.751C33.8675 73.1398 35.6965 74.4589 37.3132 75.8183C37.6713 77.359 38.1596 78.8502 38.7749 80.2809C35.6965 77.9558 32.1175 76.4104 28.7167 74.4093ZM37.0311 74.4558C35.6113 73.3227 34.0628 72.2113 32.443 71.0504C25.3066 65.9414 17.9269 60.6589 20.2938 52.1678C21.0316 49.5188 22.3925 48.0664 24.3347 47.8525C28.709 47.3611 35.3819 53.2358 37.9983 57.5805C37.0993 60.3721 36.6095 63.3079 36.6095 66.3429V69.6073C36.608 71.2689 36.7521 72.8872 37.0311 74.4558ZM75.469 102.166C66.2246 102.166 58.3426 99.7928 56.7616 98.0924C56.5864 97.9048 56.557 97.7917 56.5601 97.7684C56.6856 97.4414 56.7383 97.2088 56.791 96.9546C56.8577 96.919 56.9584 96.8725 57.0561 96.8275C62.3092 98.8674 68.3512 99.9989 74.9358 99.9989C81.7591 99.9989 88.0042 98.7883 93.3875 96.6059C94.0943 97.0089 94.3284 97.3375 94.3284 97.491C94.3284 98.8782 87.0091 102.166 75.469 102.166ZM74.9358 98.4613C53.6181 98.4613 38.1456 86.326 38.1456 69.6073V66.3429C38.1456 58.154 41.8486 50.6999 47.883 45.1027C54.8597 49.2677 64.5257 51.6377 74.9358 51.6377C85.3474 51.6377 95.0135 49.2661 101.99 45.1012C108.023 50.6983 111.724 58.154 111.724 66.3429V69.6073C111.724 86.326 96.252 98.4613 74.9358 98.4613ZM127.894 58.4811C126.34 62.6786 126.537 67.1319 126.729 71.4379L126.803 73.2003C126.999 78.5061 126.067 82.9857 123.957 86.8933C122.387 89.7997 119.166 92.0767 115.342 92.9803C111.176 93.9646 106.882 93.1756 103.157 90.7979C109.444 85.5045 113.172 78.2519 113.256 69.8909C115.961 69.3701 116.94 65.3214 117.886 61.3905C118.418 59.1786 118.966 56.8923 119.774 55.4461C121.885 51.6625 126.428 49.2894 131.632 49.2537C132.045 49.2584 132.343 49.2987 132.585 49.3483C132.74 50.2845 132.831 51.1076 132.927 51.9725C133 52.6297 133.075 53.2993 133.179 54.0371C130.805 54.313 128.666 56.4009 127.894 58.4811Z" fill="black"/>
<path d="M78.0456 22.841C78.0456 21.1933 76.6738 19.851 74.9873 19.851C73.3024 19.851 71.9307 21.1918 71.9307 22.841C71.9307 24.4903 73.3024 25.8311 74.9873 25.8311C76.6738 25.8311 78.0456 24.4887 78.0456 22.841ZM72.8111 22.841C72.8111 21.677 73.7876 20.7314 74.9889 20.7314C76.1902 20.7314 77.1667 21.677 77.1667 22.841C77.1667 24.0051 76.1902 24.9506 74.9889 24.9506C73.7876 24.9506 72.8111 24.0051 72.8111 22.841Z" fill="black"/>
<path d="M92.3102 45.2903L92.0436 44.4532C90.5648 44.9229 89.0334 45.3383 87.4927 45.6871L87.6864 46.5443C89.2535 46.1893 90.8082 45.7677 92.3102 45.2903Z" fill="black"/>
</svg>
