<svg xmlns="http://www.w3.org/2000/svg" width="16" height="16" viewBox="0 0 16 16">
    <path fill="#FFF" fill-rule="evenodd" d="M13.176.01c1.544 0 2.8 1.257 2.8 2.801v6.4c0 1.425-1.069 2.604-2.447 2.779v2.789c0 .227-.137.43-.346.517-.07.03-.142.043-.214.043-.146 0-.29-.057-.396-.164l-3.164-3.163H2.801C1.257 12.012 0 10.755 0 9.21v-6.4c0-1.544 1.257-2.8 2.801-2.8zm-1.064 7.105H3.865c-.31 0-.56.25-.56.56 0 .31.25.56.56.56h8.247c.31 0 .56-.25.56-.56 0-.31-.25-.56-.56-.56zm0-3.138H3.865c-.31 0-.56.251-.56.56 0 .31.25.56.56.56h8.247c.31 0 .56-.25.56-.56 0-.309-.25-.56-.56-.56z"/>
</svg>
