<svg xmlns="http://www.w3.org/2000/svg" width="20" height="20" viewBox="0 0 20 20">
    <path fill="#FFF" d="M10.359.135l.09.067 9.264 8.12c.283.248.312.678.064.962-.135.153-.324.232-.513.232-.127 0-.255-.036-.368-.108l-.08-.061-.718-.629V18.85c0 .342-.252.625-.58.673l-.101.008H2.583c-.342 0-.625-.252-.674-.58l-.007-.101V8.718l-.717.629c-.283.248-.714.22-.962-.064C0 9.03.001 8.655.21 8.402l.078-.08L9.55.202c.228-.2.557-.222.808-.067zm1.568 11.033h-4c-.245 0-.45.177-.492.41l-.008.09v7.862h5v-7.862c0-.276-.224-.5-.5-.5zm-1.082-5.433h-1.69c-.376 0-.68.305-.68.681 0 .376.304.681.68.681h1.69c.376 0 .68-.305.68-.68 0-.377-.304-.682-.68-.682z"/>
</svg>
