<svg xmlns="http://www.w3.org/2000/svg" width="16" height="13" viewBox="0 0 16 13">
    <path fill="#FFF" d="M14.026.025c1.078 0 1.954.88 1.95 1.957v8.248c0 1.077-.875 1.953-1.953 1.953H1.953C.877 12.183 0 11.307 0 10.23V1.979C0 .9.876.025 1.954.025zM2.114 2.15c-.165.185-.149.466.036.632l3.954 3.534-3.937 3.686c-.179.168-.189.45-.02.631.09.093.208.142.327.142.11 0 .218-.04.304-.119l3.997-3.739 1.084.969c.086.076.192.112.298.112.106 0 .215-.04.297-.115l1.115-.999 3.973 3.775c.086.083.198.123.308.123.119 0 .234-.047.323-.14.17-.178.162-.462-.016-.63l-3.924-3.726 3.907-3.504c.182-.166.199-.447.033-.632-.165-.181-.446-.198-.63-.033l-5.39 4.837-1.05-.94c-.004-.003-.007-.006-.007-.01-.023-.022-.046-.042-.073-.062L2.745 2.114c-.185-.165-.466-.149-.631.036z"/>
</svg>
