<svg xmlns="http://www.w3.org/2000/svg" width="20" height="19" viewBox="0 0 20 19">
    <g fill="#FFF">
        <path d="M12.889 14.915H7.11c-.368 0-.667.299-.667.667 0 .368.299.667.667.667h5.778c.368 0 .667-.299.667-.667 0-.368-.299-.667-.667-.667zM12.889 12.813H7.11c-.368 0-.667.298-.667.666 0 .369.299.667.667.667h5.778c.368 0 .667-.298.667-.667 0-.368-.299-.666-.667-.666z"/>
        <path d="M18.444 4.528h-2.12V.669c0-.368-.3-.666-.667-.666H4.343c-.368 0-.666.298-.666.666v3.859H1.556C.698 4.528 0 5.225 0 6.083v6.707c0 .858.698 1.556 1.556 1.556h2.12v3.579c0 .368.3.666.668.666h11.312c.369 0 .667-.298.667-.666v-3.58h2.121c.858 0 1.556-.697 1.556-1.555V6.083c0-.857-.698-1.555-1.556-1.555zM5.01 1.336h9.98v3.192H5.01V1.336zm9.98 15.922H5.01v-5.454h9.98v5.454zm.667-8.816H13.96c-.369 0-.667-.298-.667-.666 0-.369.298-.667.667-.667h1.697c.368 0 .666.298.666.667 0 .368-.298.666-.666.666z"/>
    </g>
</svg>
