<svg xmlns="http://www.w3.org/2000/svg" width="20" height="15" viewBox="0 0 20 15">
    <path fill="#FFF" d="M19.828 5.693L16.69 2.449c-.11-.114-.259-.178-.414-.178h-2.552v-.043C13.724.999 12.757 0 11.569 0H2.155C.967 0 0 1 0 2.228v8.11c0 1.23.967 2.228 2.155 2.228h.414C2.841 13.953 4.03 15 5.45 15c1.421 0 2.61-1.047 2.882-2.434h3.338C11.942 13.953 13.13 15 14.55 15c1.42 0 2.609-1.047 2.88-2.434h1.984c.324 0 .586-.27.586-.605V6.12c0-.16-.062-.315-.172-.428zm-3.795-2.21L18 5.515h-4.276V3.483h2.31zM5.45 13.788c-.975 0-1.768-.82-1.768-1.827 0-1.008.793-1.828 1.768-1.828s1.767.82 1.767 1.828c0 1.007-.793 1.827-1.767 1.827zm9.1 0c-.975 0-1.767-.82-1.767-1.827 0-1.008.792-1.828 1.767-1.828.975 0 1.768.82 1.768 1.828 0 1.007-.793 1.827-1.768 1.827z"/>
</svg>
