<svg xmlns="http://www.w3.org/2000/svg" width="13" height="12" viewBox="0 0 13 12">
    <path fill="#606060" fill-rule="evenodd" d="M6.5 10.304l-3.175 1.61c-.38.192-.85.051-1.05-.315-.08-.146-.107-.313-.078-.476l.606-3.41L.235 5.298c-.308-.29-.314-.764-.014-1.06.119-.119.275-.196.445-.22l3.55-.497L5.802.418c.19-.371.656-.524 1.041-.34.153.073.277.192.353.34l1.588 3.103 3.55.498c.424.06.719.44.657.85-.025.163-.104.314-.227.429l-2.568 2.415.606 3.41c.072.408-.212.796-.635.866-.168.028-.342.001-.493-.075L6.5 10.304z"/>
</svg>
